<mxfile host="app.diagrams.net" agent="Mozilla/5.0 (Windows NT 10.0; Win64; x64) AppleWebKit/537.36 (KHTML, like Gecko) Chrome/134.0.0.0 Safari/537.36" version="26.1.1">
  <diagram name="Seite-1" id="0EJq3OtVe1qpbmkTLpbv">
    <mxGraphModel dx="1183" dy="512" grid="1" gridSize="10" guides="1" tooltips="1" connect="1" arrows="1" fold="1" page="1" pageScale="1" pageWidth="827" pageHeight="1169" math="0" shadow="0">
      <root>
        <mxCell id="0" />
        <mxCell id="1" parent="0" />
        <mxCell id="dSK6wooaO545PfnrdNq5-22" value="" style="rounded=0;whiteSpace=wrap;html=1;" vertex="1" parent="1">
          <mxGeometry x="90" y="80" width="720" height="510" as="geometry" />
        </mxCell>
        <mxCell id="dSK6wooaO545PfnrdNq5-19" value="" style="rounded=0;whiteSpace=wrap;html=1;dashed=1;dashPattern=8 8;" vertex="1" parent="1">
          <mxGeometry x="598" y="400" width="180" height="137.09" as="geometry" />
        </mxCell>
        <mxCell id="dSK6wooaO545PfnrdNq5-14" value="" style="edgeStyle=orthogonalEdgeStyle;rounded=0;orthogonalLoop=1;jettySize=auto;html=1;" edge="1" parent="1" source="dSK6wooaO545PfnrdNq5-4" target="dSK6wooaO545PfnrdNq5-10">
          <mxGeometry relative="1" as="geometry" />
        </mxCell>
        <mxCell id="dSK6wooaO545PfnrdNq5-4" value="" style="rounded=0;whiteSpace=wrap;html=1;dashed=1;dashPattern=8 8;" vertex="1" parent="1">
          <mxGeometry x="168" y="260" width="260" height="230" as="geometry" />
        </mxCell>
        <mxCell id="dSK6wooaO545PfnrdNq5-13" value="" style="edgeStyle=orthogonalEdgeStyle;rounded=0;orthogonalLoop=1;jettySize=auto;html=1;entryX=0.5;entryY=0;entryDx=0;entryDy=0;" edge="1" parent="1" source="dSK6wooaO545PfnrdNq5-1" target="dSK6wooaO545PfnrdNq5-4">
          <mxGeometry relative="1" as="geometry">
            <mxPoint x="260" y="158" as="targetPoint" />
          </mxGeometry>
        </mxCell>
        <mxCell id="dSK6wooaO545PfnrdNq5-1" value="" style="sketch=0;outlineConnect=0;fontColor=#232F3E;gradientColor=none;fillColor=#232F3D;strokeColor=none;dashed=0;verticalLabelPosition=bottom;verticalAlign=top;align=center;html=1;fontSize=12;fontStyle=0;aspect=fixed;pointerEvents=1;shape=mxgraph.aws4.client;" vertex="1" parent="1">
          <mxGeometry x="259" y="150" width="78" height="76" as="geometry" />
        </mxCell>
        <mxCell id="dSK6wooaO545PfnrdNq5-3" value="AWS Elastic Beanstalk" style="sketch=0;outlineConnect=0;fontColor=#232F3E;gradientColor=none;strokeColor=#ffffff;fillColor=#232F3E;dashed=0;verticalLabelPosition=middle;verticalAlign=bottom;align=center;html=1;whiteSpace=wrap;fontSize=10;fontStyle=1;spacing=3;shape=mxgraph.aws4.productIcon;prIcon=mxgraph.aws4.elastic_beanstalk;" vertex="1" parent="1">
          <mxGeometry x="188" y="277.09000000000003" width="80" height="110" as="geometry" />
        </mxCell>
        <mxCell id="dSK6wooaO545PfnrdNq5-5" value="- API Gateway&lt;div&gt;- Account Management&lt;/div&gt;&lt;div&gt;&amp;nbsp;- Workspace Module&lt;/div&gt;&lt;div&gt;&lt;div&gt;- IoT Device Mgmt&lt;/div&gt;&lt;/div&gt;" style="text;html=1;align=center;verticalAlign=middle;whiteSpace=wrap;rounded=0;" vertex="1" parent="1">
          <mxGeometry x="212" y="407.09000000000003" width="190" height="30" as="geometry" />
        </mxCell>
        <mxCell id="dSK6wooaO545PfnrdNq5-21" value="" style="edgeStyle=orthogonalEdgeStyle;rounded=0;orthogonalLoop=1;jettySize=auto;html=1;" edge="1" parent="1" source="dSK6wooaO545PfnrdNq5-10">
          <mxGeometry relative="1" as="geometry">
            <mxPoint x="598" y="462.09000000000003" as="targetPoint" />
          </mxGeometry>
        </mxCell>
        <mxCell id="dSK6wooaO545PfnrdNq5-10" value="Amazon IoT Core" style="sketch=0;outlineConnect=0;fontColor=#232F3E;gradientColor=none;strokeColor=#ffffff;fillColor=#232F3E;dashed=0;verticalLabelPosition=middle;verticalAlign=bottom;align=center;html=1;whiteSpace=wrap;fontSize=10;fontStyle=1;spacing=3;shape=mxgraph.aws4.productIcon;prIcon=mxgraph.aws4.iot_core;" vertex="1" parent="1">
          <mxGeometry x="488" y="407.09000000000003" width="80" height="110" as="geometry" />
        </mxCell>
        <mxCell id="dSK6wooaO545PfnrdNq5-11" value="IoT Devices" style="shape=image;verticalLabelPosition=bottom;verticalAlign=top;imageAspect=0;aspect=fixed;image=data:image/png,iVBORw0KGgoAAAANSUhEUgAAAE0AAABwCAYAAABb7f3DAAAAAXNSR0IArs4c6QAAAARnQU1BAACxjwv8YQUAAAAJcEhZcwAADsMAAA7DAcdvqGQAABqeSURBVHhe7Z15VFNn/v/fNxvJTQgQFiHsijAgioqiRW0RR8StqGMrtjNUT5k6dSueqtXajnO06pnpjNpqF6du4FLB1tHjCI4eO61WXJgiKHVFZBUIYUkCZM/z+2OS+yU3iIAEnf58nfP8wb2f+9ybd57l8zyfzw0UIYTgOT2Cwz7wnMfzXLRe8Fy0XvBctF7wXLRe8Fy0XkA9Ky4HIQS1tbVoa2uDVquFXq8HAIhEIojFYgiFQri7u0MkErEv7Xeeqmi2W2dlZeHEiRN4+PAh9Ho9tFotDAYDLBYLRCIRaJqGQCCASCTCrFmzMHv2bAQEBICiKHaV/cJTEa2trQ1FRUX4+uuvce7cObS1tcHV1RUURYHD4YDD4YCiKFAUBYvFwhRCCNra2lBRUYHf//73SEhIwKRJkzBgwAD2LZxKv4t2584drFu3DpcvXwZN04xYNggh0Ov1TCvkcDjgcrng8Xh2Nq2trVCr1QgODsamTZswadIk5ryz6TfRtFotDh8+jPT0dERERICmaXA4/52HCCFQq9VobW2FXq9HeHg4pFIpaJpGdXU1WltboVQqIZPJIBQKIRAI7OqtrKzE8uXLsWjRIgQFBXW4q3PoF9E0Gg3mzJmDmzdvwtvbm2k1Wq0WGo0GVVVVWLduHaZPn46hQ4fadVGz2QxCCB48eIDdu3fj3LlzaG5uhlQqhUgkAkVRIISgpaUFKpUK+fn5CA8PZz9Cn+J00ZqamvDuu+/izJkz8PX1ZT5kbW0thg0bhvnz52PatGnw8vJ67MBua5EXLlxAVlYWzp8/Dx8fH6blaTQaeHt74+9//zuioqLYl/cZThdtyZIlOHLkCEJDQwEARqMR169fx9atW5GRkfFYoR4FIQT79+/H5s2bwePxIBaLAQDNzc0Qi8W4cuWK09wTpzq3tq4lk8lACIFGo0FDQwOOHj2Kd95555GC2cap8vJytLW1sU8DACiKwsKFC3H48GHw+XxoNBoQQkDTNAghaGhoYF/SdxAnk52dTQCQgIAAEhUVRRQKBduEmEwm0tzcTLZt20aSk5OJRCIhXl5exMvLiwiFQjJv3jzy9ddfk+bmZmI0GtmXE7PZTObMmUPkcjmRy+Vk6dKlbJM+xendEwAuXbqE+vp6jBo1CgEBAXbnKioqsHfvXmRlZcFiscDV1RUuLi52NjqdDiqVCjKZDJMnT8bKlSvh5+dnZ1NfX4/CwkKIRCIMGzYMMpnM7nxf0i+iPYq8vDxMmzYNAwcOhKurq50v1hkGgwFarRalpaXIzc1FcnLyI7u4M3lqoh04cADvv/8+ZDIZ+Hw+YJ0kjEYjWltbYTabweVyAQASiQR8Ph88Hg8URcFgMKCtrQ07d+7E1KlTWTU7n6ci2s8//4z4+HgEBQUxXbGlpQU0TSMkJASpqanw9/eHWq1GS0sLjh49ivv378NoNDIrCIPBgBs3bqC+vh4+Pj7sWzgX1hjXLxQUFBB/f38ybNgwMnz4cELTNFm8eDG5e/cu0el0bHPS2tpKiouLyapVqwiPxyMxMTFkxIgRxNXVlVy9epVt7nSeimgtLS1kwYIFxNvbm8hkMvK3v/2NWCwWtpkDFouFbN26lfj7+xMvLy+Snp7erev6mqfSPWHtjvfv34dYLMbAgQPt1pNdYTAYUFFRgaamJkRFRcHV1ZVt4nSemmj/yzh1RfBLhbJ20/87wPJ7nrQhsuvDE9bZ1/X1BmrVqlXEbDYzByQSCVJTUxlX4NNPP2X8pd7A5XLxq1/9CgkJCQCAyspKnDhxgtlL6ylcLhczZsxgVhY//vgjioqKOhXTWVAikYj4+/uDoiiYTCZIpVLk5+czC9+IiAj2NT2ivr4eS5YswaZNm0BRFL777ju7D91T7t27h6KiIsTExAAAtm/fjhUrVmDw4MFsU6fB8fDwgFQqhVQqhVgsdljKcDgc5nxvSmeOp0wmc7DrbvH29mZXh+DgYAc7W+Hz+X1SaJpm6uxdH/kfQalUIiQkBEOGDHmiEhISAovFAoPBAACg5HI5se2o6vV6uLi44Pz580z3jIyMhEQiYT9Pt1GpVHjllVfsumdaWhp8fX3Zpt2isrISZ8+eteue27dvh5eXl52dWq3G1KlTsX37drvjvSU7Oxt//OMfIRaLf7ktrampCYsXLwZlDQU+aYmLi4NEIoHZbP7limY0Gvt0T43L5YLL5YIQ8ssVzZk8F60X9Fo0o9GIhoYGVFVVoaKiAo2NjTCZTGyzbqHRaKBQKFBVVQWFQgGtVss2eabolWgGgwE6nQ5r165Fbm4uzp8/j0WLFkGtVkOn07HNu6SyshJjx47Fjh07cPr0afz1r39FcHAw6urq2KbPDI8VzWw2Q6VS2ZUbN25g3759WLRoEWJjYxEZGYmVK1fi2LFjPWpxCoUCb7zxBnbu3ImUlBSMGDECr776Kg4dOoTp06ejtLTU4d6dheYqKioc7NRqNdusz+gykkFRFF577TVQrHVdQkIC4uPj7Y7xeDwMGzYM7733Xqd+ExutVovIyEhs2bLFYRXi4eGBjRs3Qi6XOyzGKYpCSEgI83dkZCTWr19vZwPrIr6z1UOfIJfLyciRI0lsbCyJjo4msbGxpK2tzW6nsif84x//IEFBQSQ2NpbExsaSsLAwsnbtWmaH9dy5c8Tf35+EhoaSLVu2PJWd195QXl5ORo0aRaKjo8lju2dPCQgIYLIYu4LD4TDLkv81HitaXV2dQ6mvr2ebMdy7d69bW9dcLhcKhcKh+3WkubnZ4d49KU1NTewq+4THijZjxgxER0czxc/PDytWrEBtbS3bFDqdDocPH+7Wvj1N0zh16hTy8/PZpwAAe/bsgUwms7t3T4qfnx867hP2JV2KRqwZh8HBwUwZOXIkzp07h6VLl6KqqgrWiBZqamqQlJSEmzdvQigUsqtygMvlQiKRICkpCd9++y1Tj9lsxu7du5Geno4RI0bY3bsnRSqVsm/ZZ3Qpmg324jUwMBA3btzAlClT8Ic//AGpqakYO3YslEol3N3dHWbbR+Hi4oKIiAgsW7YM06dPxxtvvIE5c+Zg3bp1GDFihF3ubU+LM+mWaJ1h2+D7/vvvUVJSAi8vL9A03eMH5nK5kMvlqKioQEFBAUpLSxEYGNjr7fD+4ImejM/nw9XVFSKR6IniCOjwvoCzEvH6kicSDVYnVavVOm3QbW9vh1ar7fYqoz/otWhqtRp3797FkCFDEBoaCp1O1+N1Z1dotVr89NNPGD58OEJDQ5lsomeBXolWVlaG5ORkNDU1ITs7GydPnsTmzZuhUqmg0WjY5j1GqVTCy8sLVVVVOHToEE6ePImDBw9CLBajubmZbd4pUqkU165d69IP7Ak6nQ4Wi+W/E01PYwRqtRrjx4/Hjh07mORgGyUlJVi4cCF0Oh0TN+0sRpCamorAwMBOJ422tjYMHjwYBw4cgJubm925yspKzJ49G3q9/rFujVarhZeXF377299i4MCB7NM9QqPRYNeuXSgrK/tvqldPRDObzVAoFLh27VqnoTmLxYIPP/wQOTk5zAdWq9VISUnBn//8Z3A4HDQ2NuI3v/kNampqIJVK7YQzm83QaDTYv38/xo8f36Hm/2Pv3r3YsGEDPD09OxW9I7b3FCwWyxPPxrYJDz3tngaDAeHh4Q45sTY4HA6GDx9ut/bk8/m4desWMx55enoiMzMTUqnUoasRQuDi4tLlu06RkZHg8XiwWCzsUzAYDGhuboZCoUB9fT2MRiM8PDzg6+sLb29vu+Lh4cF8DovFAh6PBzc3Nwc7b29v+Pj42M3qnJ66CrY090ehUqns/hYIBLh16xZOnjwJo9EIWIO7Z86cQVBQkIO9xWJh7DrDNpOyW45arYbRaMSCBQvw5ZdfYs+ePUhMTITZbIbRaLRzfPV6PXQ6HV5++WV89tlnyMzMxKJFi8DhcKDRaB7rKHM8PT3tDnQ0oigK/v7+zPazi4sLysrKUNfFrqqrqyuqqqqYlmBbLi1atAi7du1iXBNPT098/vnn4PP5TIvTarUoLy/vcrzKz88Hl8u1e06tVguxWIy8vDy8//77mDZtGpKSkrBjxw6sWrUKt27dYr5ok8kEtVqNb7/9Fps3b8bMmTMxadIkrF69Grt374ZQKHzsLg03MDDwT4QQUNb3kLhcLtLS0pimS1EUjh49CqlUyjiw169fR1xcXKdLpujoaJhMJnz//fdMfiyXy4WbmxtOnjyJsLAwDB48GFwuF97e3khOTsaZM2dQXl4ODw8P/POf/0RkZKRdnbC28KtXr+L1119HaGgoc19CCFQqFdavX48JEybYtUAul4uYmBjo9XoUFhZCKBRCo9Fg7ty5mD9/PvjWBGl0aCACgQCnT5/uMkDO5fP5f+q4/DEYDHjhhReYBJUhQ4YgICAAX375JXx8fCAUClFWVobvvvsOAQEBcHV1RXl5OTgcDmiaBgC8+OKLaG1txalTpyCTyRjhaJrGgQMHEBwcjOjoaFAUBZlMhtDQUJw4cQK7du3CCy+8wDxcZWUl9Ho9WltbsWXLFmzZsgX+/v4Oqw+1Wo2MjIxOo/YURcHFxYXZfVGpVF0mzAwYMACHDh0Cl8t1GAJscDqOHzweDyaTCRs3bkR5eTlzLC0tDZmZmbh37x7MZjM8PT3R2NiIN998E+Hh4Rg9ejTS0tJQU1PDXLNx40YsW7YMCoWC6aoCgQCBgYH44IMPcOHCBWYTMjExEfn5+UhMTGSe5ezZs4iIiEBYWBgiIiKQk5MDFxcXu9Zhw2QygT3MdISmafD5fOZFW3bv6IhIJIJEIul0orHhIKVEIsHt27cxa9YsVFVVMcdff/11fPHFFygqKmJekx4wYADCwsIQFRWFu3fvIikpCe3t7cw1H3zwAaZMmYLy8nLmIVxcXCCRSJCQkIBLly4xY01wcDBzXV5eHpKSkhAWFobw8HCEhYXB3d29U8FgrbO6upp9mKGhoYFxOzgcTpebqLW1taiurn7kvQCA6+rq+ieJRGKnvkgkglqtxo8//oj4+HjIZDJwOBzExMQgKCgIWVlZDn6SUCiEWq3GrVu3MHnyZPD5fAgEAvz617+GUqlkXsGhKAo8Hg9SqRQ//PADxowZY9et2tvbkZGRwaQ3PQ6KomA0GiEQCDBmzBiHXePa2lq88847MJvN4PP5oCgKCoUCkydPdqhfo9Hg3XffhVqtfqRbhUeJBqsItbW1OH78OGbNmsUMjDExMRAKhcjKyoKfn5/ddTRNo6CgANeuXcPMmTMZ4RISElBcXIzCwkK4ubmBoigIBAK0t7fjo48+QkpKCvOuE4/Hg1wux7Zt2+Dt7e0wfnWGi4sLTpw4AYFAgFGjRjGtRKlUIiUlBdXV1YyzzePxUFpaiqKiIiQnJzPimEwmvP322zh79uxjo1iPFA1W4VpaWlBYWIhx48YxHnx8fDzMZjMuXbrksIcmlUpx584d1NXVYfz48RAIBODz+UhOTkZ1dTWKi4uZFsfn8+Hu7o7c3FzExcUxX8LAgQMRHx+Pb775Bnw+/7HCURQFT09P5ObmIiEhgenqBw4cwPHjx+1ePqMoCjRNo7CwEBKJhJl4Ll++jDVr1iAsLIyxfRQOYxobmUyGgoIC/O53v0NLSwtzfMOGDRg1apTD+EBRFHx8fHDw4EGkp6czPp5YLMaWLVsQGxtrF1ChaRo6nQ4jR45EcXExU09SUhL+8pe/4Pr1693adqKsMzGbzroZRVFMi+8Ie637KBxEM5vN0Ov1UKvVjPft7e2N0tJSrF69mhnoKYpCVlYWpk+fzvwISXt7OzMjBgQEID8/H2vWrGFedPXw8MBXX32FuLg4NDY2MpMDTdOIjIzEkiVLcOfOHeZZXnnlFezcuRMPHjxAQ0MDlEoltFptlzNbf2DXPW2/viIUCjFlyhRQFIXa2loQQuDm5oaLFy+itLQU06ZNA4/Hg0AgwMSJE3Hr1i0EBQXB19cX9fX1UKlUcHFxgVgsxunTp2EwGBAfH88M7rGxsbh8+TJqa2shFAqZrtrc3IxPPvkEaWlpjGM8evRomM1mJCYmYuzYsXj48CFqa2vBteaL2SCEQKfTYfbs2Uz3/Omnn3DhwgWH3RhYVxFjxoxhumdVVRU++eQT8Hg8tLW1dVmYXQ6dTgc3Nzds374dMTExTLP+z3/+gw8//BAVFRUQCoVoaGjAvHnzsGHDBofZB9YMRNsSxd3dHbDGTtPT07FmzRrmA5SWlmLZsmW4f/++XeRIo9Fg0KBBOHLkSKcRJb1ej7Nnz2LlypUQCoVMSoPFYkFLSwsyMzMxYcIEAMCuXbuwefPmTgf2xsZGLF++HCtWrACseSVXrlxhm3UK19XV9U9isRhqtRpbt27Fiy++aJdbIZfLIZfLkZOTA5qmIRaLcezYMRiNRgdbWN2VoUOHoqSkBGVlZRAKhRCLxcjJyUF4eDgiIiLA5/Mhk8kwevRo7N+/H0ajkVlv2nyuzMxMzJ8/3yFmwOPxMHjwYFRXV+P69evMdb1paXFxcUxLE4vFiIiI6FbhwDqOcblch6QWGxMnTsSECROg0+nA4XAwYsQI7N69GyUlJWxTwOr5v/rqq8z4Z1sDrlu3Djk5OcwYFxERgR9++MFuUwAA3N3doVKp7CaGjlAUhZkzZ8JsNvd6fOPz+aisrOzV9RxYfZTY2NhOvxFYHzImJoaJAdhmna52RP38/GAymZhZksfjwdPTEwsWLMCpU6eYhw0ODsagQYPsZkhCCPh8/iOfB9b6ORxOl9tUXUHTNHJzc3H06FHcuHGjR4UDa0u4fft2l4ERtVrNDLyUdZ+psbGRbcbQ2trq0HX5fD6ioqLw8ccf2y232FDWH2bqqv66ujpYrHv2vYHH44GmaaxatQqJiYk9KoxoGo0G165dY9cNWF/V2bRpk93A7O3tjfXr13caWrNYLMjLy2Nmxo7YouZdtRCKoiASiXDw4MFHZhadP38esNbXW3g8Hnx8fBxSGh5XOLDeWCQSYe3atVAqlXYVq1QqvP3224iIiLATQCKRIC8vD0ePHrUTgBCC/Px85OTkdNm9HodEIsG//vUvbNq0yU44Qgg+/fRTbNu2rdvOaF/DfE00TaOiogJTp06FQqFgDDIyMnD58uVON+UGDhyIJUuWID09HdnZ2cjNzcVbb72Fl19+GeJO3rPqKSEhIdi3bx9eeukl7NmzB1999RWWLVuGDRs2QC6Xd2t5ZTQamZhsXxStVmsfjTIajbBYLMjNzUVgYCAIIZg4cSIaGxs7XY7YaG1tZcYo234Uu1va0Ov1EIlEOHfuHFxdXUEIwZtvvon8/PxOvxh0iCpRFAWhUNhp/Z35aXv37sU333zjYPukOIhGCMGpU6cY0RITE6FUKrsUrSf0RrTu0JlozqL3o+gzSF+3qEfxixGNY/0ZxH379uHBgwfQaDROK7+Y7mlDo9E4LdfWxi9ONPTDDwFw0MHDtxU27PNPWjqDbfMkxRZAcVqxtSBiDW1xuVwolUpUVFSguroa9fX14PF4INZE4ictHA4HfD4fdXV1qKioQFVVFbPkYts+q4UCQIKCgkBZW4DFYrEL3Tkj/9VsNtuF3Pz8/ByiSM8yFAAyaNAgRjSwxoSOx/uS/riHs6AAkM52YJ/zaKgjR46Qjt/6cx7P81+16gV9O8L/f8JTFa2zDczu0lW2pLN5aqLdvn0bCQkJmDt3LpPW1R0qKiqQlpaGqVOn2rlG/Qr7Ddr+QKFQEAAkPDycBAUFkfHjx5Pi4mJiMBjYpgwmk4kUFhaScePGkZCQEBIZGUkAkNraWrap03kqLa2mpgahoaGgaRre3t5QKpWYMWMGVq9ebZfnYfPA79+/j5UrV2LWrFlobGyEp6cnRCIRvLy8usxLcxZPZfZUKBRISUlBXV0dk8FoMpnQ1taG5uZmTJw4EX5+flBb/7HDxYsXIZFI7LbQGxoa4OPjgwsXLjAB4/7iqYgGa27vzJkzUVRUBF9fXyanzGKxQK/XM2nvHA4HLi4uzFLOZDKhtrYWCQkJ2L9/v0MEvj/oF9EIIWhvb3eITtXV1eHw4cP4/PPPQVEUk/QC1tKKEAKLxcJkJb322mtYvny5w0saFosFJpPJ+etY9iDX19TX15OUlBQCgBw7dqzTwb6mpoYsXLiQeHp6kuDgYBIcHEyCgoJIUFAQCQwMJEFBQcTX15ekpqaSsrIy9uXEYrGQ7Oxs4uPjQ2bOnEkePnzINulTnNrSDAYDli5diry8PCYjPCMjA4sXL3boVoQQVFdX4/bt22hubmaSiz09PSGXyxEWFga5XO6w46LX6/HRRx8hOzsbNE2jvr4eKSkp2LFjB9Pl+xy2in2JSqUiycnJJCIigsTGxpKYmBgCgKxevZqo1eon+iETi8VCVCoVycjIIAKBgMTExJDY2FgSFRVFRo0aRbRaLfuSPsOpLodUKkVqaiqMRiPa29vB4/EQGxuLw4cPY+7cuThy5IjDS2XdgRCCzMxMJCQk4Pjx4xg6dCh41ncgbt68iVWrVjl1RnVq97TxxRdfYNu2bUzSCawBYIVCgXHjxuGtt97CyJEj4ebmBr71/w50xGQywWg0oqWlBadPn0Z2djaKi4vh6enJiKPT6fDw4UPs3LkT8+fPd+oeXb+IZjKZcPHiRcybNw/u7u6gO/yjrfb2dqhUKvj4+CAiIgLu7u6IjIxkbGpqalBTUwOVSoWSkhK0tLTAzc2NGRPNZjN0Oh1u376NK1eu2GVxOot+Ec1GQUEB1q9fj5KSEkgkErv0U4PBwKRF6K3/1o0QAoFAwLynZEuvt2G2vlTr7++PHTt2YNiwYcw5Z9KvosGa95Gfn4+PP/4YP//8M9zd3cGzJj13B5PJBL1eD4PBgLKyMpw8eRIvvfRSt36qp6/od9FsEELw2Wef4d///jfu3buHpqYmiEQi8K2v4ti6n8lkglarZRxkPp+PuLg4REdH47333uu22H3JUxPNRnt7O5RKJQoKClBYWIjKykq0trbi6tWraGlpwciRIzF8+HCIxWJMnDgRgwcPhlwud+rs+DieumiPwpaE7DQH9Ql4ZkV7lnGqc/tL5bloveC5aL3guWi94LloveD/AYxFYp2awvezAAAAAElFTkSuQmCC" vertex="1" parent="1">
          <mxGeometry x="608" y="407.09000000000003" width="57" height="82.91" as="geometry" />
        </mxCell>
        <mxCell id="dSK6wooaO545PfnrdNq5-15" value="" style="endArrow=classic;html=1;rounded=0;" edge="1" parent="1">
          <mxGeometry width="50" height="50" relative="1" as="geometry">
            <mxPoint x="458" y="377.09000000000003" as="sourcePoint" />
            <mxPoint x="488" y="317.09000000000003" as="targetPoint" />
            <Array as="points">
              <mxPoint x="458" y="317.09000000000003" />
            </Array>
          </mxGeometry>
        </mxCell>
        <mxCell id="dSK6wooaO545PfnrdNq5-17" value="- Smart Lights&lt;div&gt;- Sound&lt;br&gt;&lt;div&gt;- Desk*&lt;/div&gt;&lt;div&gt;- Picture Frame*&lt;/div&gt;&lt;div&gt;- Sensors (e.g. temperature)*&lt;/div&gt;&lt;div&gt;&lt;br&gt;&lt;/div&gt;&lt;/div&gt;" style="text;html=1;align=left;verticalAlign=middle;whiteSpace=wrap;rounded=0;" vertex="1" parent="1">
          <mxGeometry x="680" y="470.00000000000006" width="140" height="30" as="geometry" />
        </mxCell>
        <mxCell id="dSK6wooaO545PfnrdNq5-24" value="* this implementations have already been realized in existing project" style="text;html=1;align=center;verticalAlign=middle;whiteSpace=wrap;rounded=0;" vertex="1" parent="1">
          <mxGeometry x="90" y="560" width="410" height="30" as="geometry" />
        </mxCell>
        <mxCell id="dSK6wooaO545PfnrdNq5-27" value="Smart Office" style="text;html=1;align=center;verticalAlign=middle;whiteSpace=wrap;rounded=0;fontStyle=3" vertex="1" parent="1">
          <mxGeometry x="219.5" y="110" width="151" height="30" as="geometry" />
        </mxCell>
        <mxCell id="dSK6wooaO545PfnrdNq5-28" value="Sensory Safe Space" style="text;html=1;align=center;verticalAlign=middle;whiteSpace=wrap;rounded=0;fontStyle=1;fontSize=20;" vertex="1" parent="1">
          <mxGeometry x="189" y="80" width="212" height="50" as="geometry" />
        </mxCell>
        <mxCell id="dSK6wooaO545PfnrdNq5-29" value="&amp;nbsp;WebClient" style="text;html=1;align=center;verticalAlign=middle;whiteSpace=wrap;rounded=0;" vertex="1" parent="1">
          <mxGeometry x="341" y="173" width="60" height="30" as="geometry" />
        </mxCell>
        <mxCell id="dSK6wooaO545PfnrdNq5-30" value="Amazon S3" style="sketch=0;outlineConnect=0;fontColor=#232F3E;gradientColor=none;strokeColor=#ffffff;fillColor=#232F3E;dashed=0;verticalLabelPosition=middle;verticalAlign=bottom;align=center;html=1;whiteSpace=wrap;fontSize=10;fontStyle=1;spacing=3;shape=mxgraph.aws4.productIcon;prIcon=mxgraph.aws4.s3;" vertex="1" parent="1">
          <mxGeometry x="488" y="282.09" width="80" height="100" as="geometry" />
        </mxCell>
      </root>
    </mxGraphModel>
  </diagram>
</mxfile>
